<?xml version="1.0" standalone="no"?>
<!DOCTYPE svg PUBLIC "-//W3C//DTD SVG 1.1//EN" "http://www.w3.org/Graphics/SVG/1.1/DTD/svg11.dtd" >
<svg xmlns="http://www.w3.org/2000/svg">
<metadata></metadata>
<defs>
<font id="novecento_sans_widenormal" horiz-adv-x="1368" >
<font-face units-per-em="2048" ascent="1681" descent="-367" />
<missing-glyph horiz-adv-x="512" />
<glyph horiz-adv-x="0" />
<glyph unicode="&#xd;" horiz-adv-x="682" />
<glyph unicode=" "  horiz-adv-x="512" />
<glyph unicode="&#x09;" horiz-adv-x="512" />
<glyph unicode="&#xa0;" horiz-adv-x="512" />
<glyph unicode="!" horiz-adv-x="536" d="M352 1434v-1102h-168v1102h168zM268 -20q-52 0 -81 29.5t-29 74.5t29 73.5t81 28.5t81.5 -29t29.5 -73q0 -45 -29.5 -74.5t-81.5 -29.5z" />
<glyph unicode="&#x22;" horiz-adv-x="657" d="M258 1434l-8 -471h-139l-11 471h158zM553 1434l-10 -471h-140l-10 471h160z" />
<glyph unicode="#" horiz-adv-x="1353" d="M926 367h194l-39 -148h-196l-58 -219h-141l57 219h-327l-60 -219h-141l59 219h-196l41 148h196l113 417h-195l41 146h193l57 217h142l-60 -217h330l59 217h142l-60 -217h199l-41 -146h-197zM567 784l-112 -417h329l113 417h-330z" />
<glyph unicode="$" horiz-adv-x="970" d="M899 307q0 -144 -90.5 -228.5t-247.5 -98.5v-164h-133v164q-62 6 -116 24.5t-105 52t-86.5 92t-48.5 136.5l145 39q12 -101 88 -161.5t197 -60.5q109 0 173 52.5t64 146.5q0 26 -5.5 48.5t-13 40t-24 33.5t-28 26.5t-36.5 22t-39 17.5t-45.5 15t-46 12.5t-50 11.5 t-48.5 11q-41 10 -71 19.5t-69.5 26t-66.5 39.5t-52 54t-37.5 75.5t-12.5 98.5q0 133 83.5 215.5t232.5 97.5v166h135v-164q283 -28 344 -276l-144 -39q-41 190 -262 190q-115 0 -176 -50t-61 -132q0 -42 14.5 -74t36 -52t62 -37t75 -26.5t92.5 -21.5q34 -8 53.5 -12.5 t55 -15t57.5 -20t52.5 -25.5t50 -33t41.5 -41.5t34.5 -52t20.5 -64t8 -78.5z" />
<glyph unicode="%" horiz-adv-x="1456" d="M334 449q-262 0 -262 358q0 360 262 360t262 -360q0 -358 -262 -358zM977 1147l-385 -1147h-115l385 1147h115zM334 561q74 0 110.5 58t36.5 188q0 132 -36.5 190t-110.5 58q-75 0 -112.5 -58.5t-37.5 -189.5q0 -130 38 -188t112 -58zM1124 -14q-262 0 -262 360 q0 363 262 363t262 -363q0 -360 -262 -360zM1124 100q74 0 111 58t37 188q0 131 -37 189.5t-111 58.5q-75 0 -112 -58t-37 -190q0 -130 37 -188t112 -58z" />
<glyph unicode="&#x26;" horiz-adv-x="1253" d="M1014 518v-145q0 -195 -118 -296.5t-341 -101.5q-217 0 -330.5 91t-113.5 243q0 116 65 191.5t164 93.5v4q-87 17 -152 86t-65 186q0 147 103.5 223t297.5 76q396 0 484 -303l-148 -41q-29 100 -103 154.5t-218 54.5q-252 0 -252 -176q0 -86 66 -140t194 -54h649v-144z M854 520h-313q-123 0 -196 -52t-73 -153q0 -98 71.5 -152t213.5 -54q149 0 223 64.5t74 201.5v145z" />
<glyph unicode="'" horiz-adv-x="364" d="M258 1434l-8 -471h-139l-11 471h158z" />
<glyph unicode="(" horiz-adv-x="729" d="M647 1628l47 -151q-212 -72 -315 -288t-103 -593t103 -593t315 -288l-47 -153q-91 32 -167.5 84t-145 137t-116 196.5t-75.5 269t-28 347.5q0 846 532 1032z" />
<glyph unicode=")" horiz-adv-x="729" d="M84 -436l-49 151q212 72 315 288t103 593t-103 593t-315 288l49 153q91 -32 166.5 -84t144.5 -137t116 -196.5t75 -269t28 -347.5q0 -845 -530 -1032z" />
<glyph unicode="*" horiz-adv-x="1001" d="M594 1061l156 -217l-95 -68l-153 219l-154 -219l-96 68l156 217l-250 78l35 108l249 -78v265h117v-265l250 78l37 -108z" />
<glyph unicode="+" d="M1073 520h-313v-338h-152v338h-313v142h313v335h152v-335h313v-142z" />
<glyph unicode="," horiz-adv-x="458" d="M221 0q-42 -6 -68 17.5t-26 66.5q0 41 29 68.5t77 27.5q55 0 87 -34.5t32 -98.5q0 -75 -50 -151.5t-134 -106.5l-68 72q46 16 79.5 57.5t41.5 81.5z" />
<glyph unicode="-" horiz-adv-x="1189" d="M983 520h-778v142h778v-142z" />
<glyph unicode="." horiz-adv-x="458" d="M229 -20q-53 0 -81.5 29.5t-28.5 74.5t29 73.5t81 28.5t81.5 -29t29.5 -73q0 -45 -29.5 -74.5t-81.5 -29.5z" />
<glyph unicode="/" horiz-adv-x="993" d="M946 1434l-723 -1434h-176l727 1434h172z" />
<glyph unicode="0" horiz-adv-x="1067" d="M532 1169q219 0 338 -153.5t119 -442.5t-119 -443.5t-338 -154.5t-337.5 154.5t-118.5 443.5t118.5 442.5t337.5 153.5zM532 1022q-152 0 -224 -112.5t-72 -336.5q0 -450 296 -450q297 0 297 450q0 224 -72.5 336.5t-224.5 112.5z" />
<glyph unicode="1" horiz-adv-x="700" d="M377 0v766q0 38 2 88.5t3.5 80.5t0.5 30h-4q-1 0 -16.5 -19t-36 -42t-31.5 -32l-117 -118l-96 112l303 281h152v-1147h-160z" />
<glyph unicode="2" horiz-adv-x="1003" d="M100 0v174l416 320q124 99 176.5 168t52.5 149q0 95 -65 158t-188 63q-118 0 -181 -58.5t-71 -148.5l-150 41q12 80 50 139.5t94.5 94.5t124 52t145.5 17q192 0 297.5 -95.5t105.5 -258.5q0 -66 -17.5 -119.5t-58.5 -104.5t-90 -93.5t-129 -100.5l-327 -252l2 -4 q3 0 26 0.5t62.5 1t81.5 0.5h456v-143h-813z" />
<glyph unicode="3" horiz-adv-x="1001" d="M686 602v-6q105 -11 172.5 -84.5t67.5 -194.5q0 -154 -113.5 -248t-298.5 -94q-175 0 -293.5 89t-144.5 241l141 39q20 -108 98 -168.5t197 -60.5q123 0 189.5 63.5t66.5 159.5q0 98 -69.5 148.5t-190.5 50.5h-115v120h111q120 0 186 48t66 141q0 91 -64.5 140.5 t-181.5 49.5q-239 0 -264 -209l-146 39q28 158 142 230.5t282 72.5q192 0 290.5 -80.5t98.5 -216.5q0 -115 -66 -185t-161 -85z" />
<glyph unicode="4" horiz-adv-x="1075" d="M815 0h-160v299h-585v145l510 703h235v-711h168v-137h-168v-299zM655 752v264h-6l-430 -576l4 -4h189h243v316z" />
<glyph unicode="5" horiz-adv-x="1030" d="M276 647l5 -2q32 38 102 69t160 31q180 0 288.5 -103.5t108.5 -274.5q0 -177 -116.5 -284.5t-305.5 -107.5q-166 0 -281.5 86t-146.5 230l139 35q20 -100 97.5 -156.5t187.5 -56.5q122 0 197 68.5t75 185.5q0 118 -76 187t-204 69q-98 0 -161 -39t-89 -92l-129 36 l104 619h633v-150h-524l-33 -190q-6 -41 -14 -80t-12.5 -58.5t-4.5 -21.5z" />
<glyph unicode="6" horiz-adv-x="1021" d="M305 647l6 -4q85 98 242 98q170 0 280.5 -103.5t110.5 -266.5q0 -174 -121 -285t-315 -111q-192 0 -313 110t-121 300q0 101 39 195.5t120 199.5l285 367h174zM510 115q127 0 204.5 70.5t78.5 189.5q0 116 -76.5 184t-206.5 68q-129 0 -204 -68t-75 -184 q0 -118 76.5 -189t202.5 -71z" />
<glyph unicode="7" horiz-adv-x="962" d="M915 1028l-579 -1028h-166l461 821q23 40 50 83.5t41.5 66.5t14.5 24l-4 4q-71 -2 -149 -2h-523v150h854v-119z" />
<glyph unicode="8" horiz-adv-x="1028" d="M76 309q0 126 79.5 202t188.5 89v6q-28 3 -62 20t-69.5 47t-59.5 81t-24 112q0 130 103.5 216.5t281.5 86.5q176 0 280.5 -86.5t104.5 -214.5q0 -50 -16.5 -93.5t-41 -72.5t-54.5 -50.5t-55.5 -32t-45.5 -13.5v-6q106 -14 186 -89.5t80 -201.5q0 -148 -116.5 -241 t-319.5 -93q-202 0 -321 92.5t-119 241.5zM268 858q0 -89 69.5 -139.5t176.5 -50.5q110 1 177 54t67 138q0 86 -66.5 139.5t-177.5 53.5q-115 0 -180.5 -54t-65.5 -141zM229 319q0 -103 78 -161t207 -58q131 0 208 58t77 161q0 100 -77 154.5t-208 54.5q-132 0 -208.5 -55 t-76.5 -154z" />
<glyph unicode="9" horiz-adv-x="1038" d="M727 489l-4 5q-93 -99 -248 -99q-176 0 -284.5 106t-108.5 271q0 176 122.5 286.5t315.5 110.5q123 0 221.5 -45.5t159 -139.5t60.5 -222q0 -129 -57.5 -237.5t-178.5 -248.5l-240 -276h-180zM518 1030q-123 0 -204 -66t-81 -196q0 -87 40.5 -146.5t102.5 -84.5t142 -25 q125 0 205 66t80 192q0 129 -81 194.5t-204 65.5z" />
<glyph unicode=":" horiz-adv-x="458" d="M229 692q-53 0 -81.5 30t-28.5 75t29 73.5t81 28.5t81.5 -29.5t29.5 -72.5q0 -46 -29.5 -75.5t-81.5 -29.5zM229 -20q-53 0 -81.5 29.5t-28.5 74.5t29 73.5t81 28.5t81.5 -29t29.5 -73q0 -45 -29.5 -74.5t-81.5 -29.5z" />
<glyph unicode=";" horiz-adv-x="458" d="M229 692q-53 0 -81.5 30t-28.5 75t29 73.5t81 28.5t81.5 -29.5t29.5 -72.5q0 -46 -29.5 -75.5t-81.5 -29.5zM221 2q-42 -6 -68 17t-26 65t28.5 69t77.5 27q55 0 87 -34.5t32 -96.5q0 -76 -50 -152.5t-134 -105.5l-68 70q46 16 79.5 58t41.5 83z" />
<glyph unicode="&#x3c;" d="M1110 84l-924 444v127l924 445v-150l-741 -356v-4l741 -357v-149z" />
<glyph unicode="=" d="M1073 711h-778v141h778v-141zM1073 336h-778v141h778v-141z" />
<glyph unicode="&#x3e;" d="M999 590v4l-741 356v150l924 -445v-127l-924 -444v149z" />
<glyph unicode="?" horiz-adv-x="1153" d="M469 332v362q244 85 340 163.5t96 186.5q0 48 -15.5 91t-49 82.5t-97.5 62.5t-151 23q-154 0 -237 -66.5t-119 -194.5l-158 43q44 181 180.5 279t341.5 98q119 0 212.5 -33.5t149.5 -90t84.5 -126t28.5 -147.5q0 -74 -25.5 -137.5t-65.5 -109.5t-99.5 -86.5t-116.5 -67 t-129 -52.5v-280h-170zM553 -20q-53 0 -83 29.5t-30 74.5q0 44 30.5 73t82.5 29t81.5 -29t29.5 -73q0 -45 -29.5 -74.5t-81.5 -29.5z" />
<glyph unicode="@" horiz-adv-x="1611" d="M1012 291h-4q-30 -69 -98 -111.5t-158 -42.5q-140 0 -238 99.5t-98 275.5q0 177 90 281t239 104q56 0 101 -14t71 -36.5t39 -38.5t21 -32h6v-239q0 101 -56.5 163t-150.5 62q-97 0 -150 -68t-53 -180t55.5 -176t147.5 -64q94 0 146.5 62t60.5 160v372h158v-424 q0 -92 25 -136t85 -44q76 0 117 77.5t41 209.5q0 278 -165 450.5t-435 172.5q-271 0 -438.5 -176t-167.5 -459q0 -153 42.5 -274t119 -199t180.5 -119t229 -41q68 0 130 9.5t103 23t79 32.5t56 32t36.5 28.5t19.5 15.5l94 -74q-78 -80 -224.5 -131t-289.5 -51 q-155 0 -283.5 50.5t-221 144.5t-144 236t-51.5 319q0 158 54.5 296.5t150.5 237.5t232 156t292 57q215 0 381.5 -97t256 -265t89.5 -377q0 -187 -77.5 -299.5t-223.5 -112.5q-81 0 -143.5 44t-77.5 110z" />
<glyph unicode="A" horiz-adv-x="1499" d="M1112 381h-727l-160 -381h-178l610 1434h183l610 -1434h-178zM1049 532l-158 375q-20 47 -58 139t-60 144t-23 53h-5q-3 -3 -139 -334l-157 -377h600z" />
<glyph unicode="B" horiz-adv-x="1275" d="M877 772v-6q56 -9 109 -33.5t103.5 -66.5t81.5 -111t31 -156q0 -184 -128 -291.5t-361 -107.5h-555v1434h516q193 0 310.5 -100t117.5 -253q0 -130 -67.5 -208.5t-157.5 -100.5zM324 819h333q124 0 200.5 62t76.5 176q0 107 -78 170t-215 63h-317v-471zM324 143h381 q149 0 236 68t87 197q0 130 -95 205t-233 75h-376v-545z" />
<glyph unicode="C" horiz-adv-x="1574" d="M1323 446l162 -43q-83 -201 -262.5 -315.5t-407.5 -114.5q-208 0 -375.5 91.5t-264.5 263t-97 393.5q0 166 56.5 305.5t154.5 234.5t233.5 148t292.5 53q237 0 408 -111t243 -280l-161 -45q-19 34 -43 67t-68 73t-95 69.5t-127 49.5t-161 20q-252 0 -408.5 -159.5 t-156.5 -426.5q0 -133 43.5 -244t119 -185.5t178 -115.5t220.5 -41q174 0 311 84t205 229z" />
<glyph unicode="D" horiz-adv-x="1492" d="M158 1434h495q221 0 393.5 -87.5t270.5 -253t98 -382.5q0 -163 -56.5 -297t-156.5 -224.5t-237 -140t-297 -49.5h-510v1434zM324 156h335q122 0 227 35t186.5 102t128 174.5t46.5 243.5t-46.5 244.5t-128.5 178.5t-190.5 107t-234.5 37h-323v-1122z" />
<glyph unicode="E" horiz-adv-x="1228" d="M158 0v1434h964v-156h-798v-451h622v-155h-622v-516h802v-156h-968z" />
<glyph unicode="F" horiz-adv-x="1193" d="M1114 1278h-790v-479h628v-156h-628v-643h-166v1434h956v-156z" />
<glyph unicode="G" horiz-adv-x="1617" d="M1495 0h-149q0 72 0.5 119t1 66t0.5 22h-5q-32 -37 -74.5 -71.5t-108.5 -74.5t-156.5 -64t-190.5 -24q-152 0 -286.5 53.5t-234 149.5t-157 237t-57.5 306q0 167 56.5 307t155.5 235t235.5 148t293.5 53q235 0 407 -111t244 -280l-163 -45q-17 32 -39 63t-65.5 72.5 t-94.5 71.5t-128 51t-165 21q-252 0 -410.5 -159.5t-158.5 -424.5q0 -268 163 -428t414 -160q96 0 185.5 24.5t153.5 64t109 82.5t68 85v205h-426v156h582v-750z" />
<glyph unicode="H" horiz-adv-x="1437" d="M1114 0v670h-790v-670h-166v1434h166v-605h790v605h168v-1434h-168z" />
<glyph unicode="I" horiz-adv-x="481" d="M158 0v1434h166v-1434h-166z" />
<glyph unicode="J" horiz-adv-x="999" d="M852 1434v-861q0 -291 -125.5 -445.5t-366.5 -154.5q-225 0 -360 164l94 131q106 -135 266 -135q169 0 246.5 111.5t77.5 337.5v852h168z" />
<glyph unicode="K" horiz-adv-x="1329" d="M578 741l-254 -264v-477h-166v1434h166v-447v-309h4l233 248l477 508h201l-539 -574l594 -862l-196 2z" />
<glyph unicode="L" horiz-adv-x="1155" d="M158 0v1434h166v-1278h755v-156h-921z" />
<glyph unicode="M" horiz-adv-x="1642" d="M1319 0v645q0 45 0.5 98t1 101.5t1 96.5t1 87.5t1 69.5t0.5 48l1 17h-4l-19 -36q-18 -36 -64 -122.5t-103 -187.5l-263 -465h-100l-260 459q-59 104 -105.5 192t-64.5 124l-18 36h-5l1 -17v-48t1 -69.5t1.5 -87.5t0.5 -96.5t0.5 -101.5t0.5 -98v-645h-166v1434h176 l487 -873h4l490 873h172v-1434h-168z" />
<glyph unicode="N" horiz-adv-x="1488" d="M1163 0l-839 1165h-5l1 -10v-28t1 -42t1.5 -55t0.5 -63.5t0.5 -71t0.5 -74.5v-821h-166v1434h168l839 -1155h4v10q0 10 -0.5 28t-1 42t-1 54t-1 62t-0.5 68.5v70.5v820h168v-1434h-170z" />
<glyph unicode="O" horiz-adv-x="1642" d="M78 719q0 163 57 302.5t156.5 236t236.5 150.5t293 54t292.5 -54t236.5 -150.5t157.5 -236t57.5 -302.5q0 -164 -57.5 -304t-157.5 -236.5t-236.5 -151t-292.5 -54.5q-209 0 -378 92.5t-267 263.5t-98 390zM246 719q0 -178 76.5 -312.5t206 -204t292.5 -69.5 q162 0 292 69.5t207 204t77 312.5t-77 312.5t-207 204t-292 69.5t-292 -70t-206.5 -204.5t-76.5 -311.5z" />
<glyph unicode="P" horiz-adv-x="1179" d="M158 1434h434q253 0 393.5 -115t140.5 -332q0 -212 -141 -328t-393 -116h-268v-543h-166v1434zM324 690h272q179 0 270.5 75.5t91.5 219.5q0 149 -94 222t-268 73h-272v-590z" />
<glyph unicode="Q" horiz-adv-x="1642" d="M1565 719q0 -204 -86.5 -367t-235.5 -259t-338 -116v-253h-170v253q-141 15 -261.5 74.5t-208.5 154.5t-137.5 227.5t-49.5 285.5q0 163 57 302.5t156.5 236t236.5 150.5t293 54t292.5 -54t236.5 -150.5t157.5 -236t57.5 -302.5zM821 133q162 0 292 69.5t207 204 t77 312.5t-77 312.5t-207 204t-292 69.5t-292 -70t-206.5 -204.5t-76.5 -311.5q0 -178 76.5 -312.5t206 -204t292.5 -69.5z" />
<glyph unicode="R" horiz-adv-x="1232" d="M956 0l-325 563q-31 -2 -131 -2h-176v-561h-166v1434h438q252 0 393 -118t141 -329q0 -162 -85.5 -261t-241.5 -132l354 -594h-201zM324 700h288q349 0 349 281q0 149 -94 224t-265 75h-278v-580z" />
<glyph unicode="S" horiz-adv-x="1214" d="M72 377l159 43q12 -148 122.5 -222.5t283.5 -74.5q160 0 248 64.5t88 191.5q0 43 -11.5 78.5t-28 60.5t-46 45.5t-55 32.5t-66.5 24t-68 17.5t-73 14.5t-68 14q-51 12 -86.5 21.5t-86 27.5t-85 37.5t-72.5 51t-61 68t-38 88t-15 111.5q0 186 129 288.5t356 102.5 q206 0 343 -88.5t181 -267.5l-159 -43q-62 250 -367 250q-154 0 -233.5 -62.5t-79.5 -173.5q0 -35 7.5 -64.5t24.5 -52.5t35 -41.5t49 -33.5t56.5 -25.5t66.5 -21.5t70 -17.5t76 -15.5q54 -10 94 -19.5t93 -27.5t90.5 -38t77 -52.5t64 -71.5t40.5 -94t16 -121 q0 -200 -133 -304t-375 -104q-78 0 -147.5 10.5t-141.5 38.5t-126.5 72.5t-94.5 116.5t-53 166z" />
<glyph unicode="T" horiz-adv-x="1304" d="M1229 1278h-494v-1278h-168v1278h-491v156h1153v-156z" />
<glyph unicode="U" horiz-adv-x="1425" d="M1286 1434v-836q0 -304 -147.5 -464.5t-425.5 -160.5q-280 0 -427 160t-147 465v836h170v-836q0 -235 99 -350t305 -115q208 0 307.5 115t99.5 350v836h166z" />
<glyph unicode="V" horiz-adv-x="1404" d="M803 0h-199l-569 1434h186l293 -752q173 -443 191 -496h4q33 98 186 486l297 762h180z" />
<glyph unicode="W" horiz-adv-x="1992" d="M1319 0l-205 647q-29 91 -58 189.5t-43.5 149.5t-15.5 52h-4q-1 -1 -15 -52t-42.5 -153.5t-58.5 -199.5l-197 -633h-180l-463 1434h184l213 -682q161 -512 164 -519h4q2 3 135 453l170 555h195l168 -557q19 -64 55 -184.5t57.5 -192.5t22.5 -74h4q1 2 24.5 77t64 206 t69.5 223l223 695h166l-461 -1434h-176z" />
<glyph unicode="X" horiz-adv-x="1392" d="M1143 0l-264 360q-52 71 -101 138t-66 90.5t-18 23.5h-2q-2 0 -190 -256l-258 -356h-203l555 745l-510 689h203l252 -344q164 -224 166 -224h2q1 0 15.5 21.5t54.5 79.5t87 123l244 344h199l-506 -691l549 -743h-209z" />
<glyph unicode="Y" horiz-adv-x="1345" d="M756 623v-623h-168v623l-553 811h192l322 -471q32 -46 64 -93t47 -70t16 -24h4l15 23q15 23 45 68t63 91l325 476h183z" />
<glyph unicode="Z" horiz-adv-x="1339" d="M1253 1274l-786 -928q-53 -63 -95.5 -110t-57.5 -62l-15 -16l4 -4h9q9 0 25 0.5t36.5 1t49.5 0.5h58h772v-156h-1167v154l803 946q45 53 85.5 96.5t56.5 60t16 17.5l-3 6h-8q-9 0 -24 -0.5t-35 -1t-48.5 -0.5h-58.5h-764v156h1147v-160z" />
<glyph unicode="[" horiz-adv-x="745" d="M664 -279v-151h-471v2064h471v-151h-308v-1762h308z" />
<glyph unicode="\" horiz-adv-x="993" d="M946 0h-176l-723 1434h174z" />
<glyph unicode="]" horiz-adv-x="745" d="M82 1487v151h471v-2064h-471v152h307v1761h-307z" />
<glyph unicode="^" d="M684 1305l-428 -557l-125 81l477 615h152l475 -615l-123 -81z" />
<glyph unicode="_" horiz-adv-x="1492" d="M1335 -131h-1177v131h1177v-131z" />
<glyph unicode="`" horiz-adv-x="1091" d="M508 1874l213 -330h-156l-194 285z" />
<glyph unicode="a" horiz-adv-x="1220" d="M885 307h-553l-119 -307h-166l469 1147h189l469 -1147h-168zM829 446l-100 256q-117 293 -117 308h-6q0 -8 -123 -322l-96 -242h442z" />
<glyph unicode="b" horiz-adv-x="1110" d="M774 612v-6q47 -8 90.5 -28t83 -53.5t63 -86t23.5 -116.5q0 -141 -105.5 -231.5t-291.5 -90.5h-479v1147h456q152 0 249.5 -84t97.5 -203q0 -106 -53 -165t-134 -83zM317 659h267q89 0 153 47t64 134q0 74 -58 123t-157 49h-269v-353zM317 135h316q105 0 171 52.5 t66 142.5q0 93 -69.5 146.5t-175.5 53.5h-308v-395z" />
<glyph unicode="c" horiz-adv-x="1320" d="M1077 352l154 -41q-74 -154 -217 -245t-328 -91q-173 0 -312 77t-217.5 213.5t-78.5 307.5q0 169 78.5 305.5t217 213.5t310.5 77q117 0 220 -36t187.5 -113.5t131.5 -188.5l-152 -40q-12 21 -17.5 29.5t-26.5 37t-39.5 45.5t-51.5 42.5t-67 40t-82 25.5t-101 11 q-195 0 -320.5 -125.5t-125.5 -323.5q0 -199 126 -324.5t318 -125.5q135 0 236 63t157 166z" />
<glyph unicode="d" horiz-adv-x="1265" d="M158 1147h395q282 0 458.5 -156.5t176.5 -421.5q0 -175 -81.5 -305.5t-222 -197t-321.5 -66.5h-405v1147zM317 150h242q212 0 339.5 107.5t127.5 311.5q0 205 -128.5 316.5t-346.5 111.5h-234v-847z" />
<glyph unicode="e" horiz-adv-x="1075" d="M158 0v1147h805v-150h-646v-331h498v-146h-498v-370h656v-150h-815z" />
<glyph unicode="f" horiz-adv-x="1019" d="M942 997h-625v-372h465v-150h-465v-475h-159v1147h784v-150z" />
<glyph unicode="g" horiz-adv-x="1376" d="M1253 0h-143v67.5t0.5 48t1 29t0.5 17v6.5h-4q-25 -31 -58.5 -59t-86 -61t-126.5 -53t-157 -20q-170 0 -307.5 77t-216 214t-78.5 307t78.5 306.5t216.5 213t309 76.5q83 0 161.5 -19.5t151.5 -58.5t133 -105.5t97 -154.5l-148 -38q-45 95 -146.5 163t-244.5 68 q-196 0 -321 -125t-125 -328q0 -199 128 -323.5t334 -124.5q136 0 250 58.5t156 127.5v146h-348v143h493v-598z" />
<glyph unicode="h" horiz-adv-x="1261" d="M1106 0h-160v516h-629v-516h-159v1147h159v-481h629v481h160v-1147z" />
<glyph unicode="i" horiz-adv-x="475" d="M158 0v1147h159v-1147h-159z" />
<glyph unicode="j" horiz-adv-x="868" d="M721 1147v-684q0 -235 -107 -361.5t-309 -126.5q-193 0 -305 127l88 117q84 -96 215 -96q135 0 196.5 86t61.5 260v678h160z" />
<glyph unicode="k" horiz-adv-x="1167" d="M948 0l-416 584l-215 -222v-362h-159v1147h159v-326v-65.5t-0.5 -58t-0.5 -49v-40.5t-0.5 -29.5t-0.5 -18.5v-7h4q61 64 156 162l418 432h203l-445 -457l482 -690h-185z" />
<glyph unicode="l" horiz-adv-x="989" d="M158 0v1147h159v-997h598v-150h-757z" />
<glyph unicode="m" horiz-adv-x="1435" d="M1118 0v582l2 331h-4l-346 -634h-108l-349 643h-4l1 -24q0 -24 0.5 -62t1 -81t1 -88.5t0.5 -76.5v-590h-155v1147h194l242 -434q36 -65 68.5 -127.5t46 -88.5t14.5 -26h4q2 0 15.5 25.5t47.5 90.5t68 128l238 432h182v-1147h-160z" />
<glyph unicode="n" horiz-adv-x="1290" d="M1133 0h-164l-652 903h-4v-7q0 -8 0.5 -22t1 -32t1 -41.5t1 -48t0.5 -54v-57.5v-641h-159v1147h164l649 -889h4v8q0 7 -0.5 19.5t-0.5 30v39.5t-0.5 45t-0.5 50.5v53.5v643h160v-1147z" />
<glyph unicode="o" horiz-adv-x="1361" d="M78 571q0 171 79.5 308.5t217 213.5t305.5 76t305.5 -76t217 -213.5t79.5 -308.5q0 -127 -46.5 -238t-126.5 -189.5t-191.5 -123.5t-237.5 -45t-237.5 45t-191.5 123.5t-126.5 189.5t-46.5 238zM240 571q0 -196 125.5 -322t314.5 -126t314.5 126t125.5 322 q0 199 -125 325t-315 126t-315 -126t-125 -325z" />
<glyph unicode="p" horiz-adv-x="1032" d="M158 1147h372q213 0 330 -96.5t117 -262.5q0 -167 -116 -261.5t-331 -94.5h-213v-432h-159v1147zM317 567h220q136 0 207 57.5t71 159.5t-71 161t-207 59h-220v-437z" />
<glyph unicode="q" horiz-adv-x="1357" d="M1282 571q0 -236 -147.5 -399.5t-376.5 -189.5v-220h-160v220q-227 28 -373.5 191t-146.5 398q0 171 79.5 308.5t217 213.5t305.5 76t305.5 -76t217 -213.5t79.5 -308.5zM680 123q189 0 314.5 126t125.5 322q0 199 -125 325t-315 126t-315 -126t-125 -325 q0 -196 125.5 -322t314.5 -126z" />
<glyph unicode="r" horiz-adv-x="1095" d="M846 0l-275 455q-45 -2 -127 -2h-127v-453h-159v1147h377q214 0 331 -90t117 -256q0 -128 -70 -209.5t-188 -108.5l295 -483h-174zM317 582h224q280 0 280 209q0 210 -280 210h-224v-419z" />
<glyph unicode="s" horiz-adv-x="1024" d="M72 285l145 39q12 -101 95 -160.5t218 -59.5q121 0 191 51t70 150q0 29 -5.5 53.5t-19.5 43.5t-27 33.5t-39 27t-44 20.5t-53.5 17.5t-56 14t-63 13t-63.5 13.5q-37 8 -63 15t-62.5 20t-62 28t-53 39t-44.5 52t-28 68t-11 87q0 155 108 237t302 82q177 0 290 -70 t146 -208l-141 -39q-51 188 -285 188q-123 0 -189.5 -47.5t-66.5 -136.5q0 -41 16 -71.5t39.5 -50t68.5 -36t82.5 -25.5t102.5 -22q43 -9 68 -14.5t70.5 -20t74 -29.5t64.5 -42t56.5 -58.5t35 -78t14.5 -101.5q0 -164 -114 -248t-308 -84q-59 0 -113.5 7.5t-113 28.5 t-103.5 54.5t-80 90t-48 129.5z" />
<glyph unicode="t" horiz-adv-x="1112" d="M1036 997h-401v-997h-160v997h-399v150h960v-150z" />
<glyph unicode="u" horiz-adv-x="1251" d="M1112 1147v-653q0 -258 -125.5 -388.5t-361.5 -130.5t-361 130.5t-125 388.5v653h162v-670q0 -179 80.5 -266.5t245.5 -87.5t245 87.5t80 266.5v670h160z" />
<glyph unicode="v" horiz-adv-x="1234" d="M709 0h-185l-489 1147h176l240 -561q52 -121 94 -222.5t59 -143.5l17 -42h4q0 1 6.5 16.5t19.5 48.5t31.5 77.5t48 115t62.5 148.5l237 563h170z" />
<glyph unicode="w" horiz-adv-x="1665" d="M1090 0l-144 446q-31 96 -58.5 186.5t-39 130t-12.5 40.5h-5q-1 -1 -13 -40t-41.5 -132t-59.5 -187l-142 -444h-161l-377 1147h170l172 -531q36 -111 68.5 -215t46 -147.5t14.5 -44.5h2q1 1 13.5 42.5t41.5 134.5t58 183l135 432h166l133 -432q28 -92 55.5 -183.5 t39.5 -133.5t13 -43h2q1 1 14.5 44t46.5 147t70 216l172 531h158l-377 -1147h-161z" />
<glyph unicode="x" horiz-adv-x="1179" d="M946 0l-205 266q-48 62 -88.5 116t-55 74.5t-15.5 20.5h-2q-1 0 -162 -213l-195 -264h-182l444 592l-409 555h190l166 -223q46 -61 89.5 -118.5t59.5 -79t17 -21.5h2l168 227l156 215h176l-412 -557l451 -590h-193z" />
<glyph unicode="y" horiz-adv-x="1107" d="M633 0h-160v473l-438 674h182l184 -281q40 -59 79.5 -119.5t59.5 -90.5l19 -31h4q1 1 20 30t60 92t80 121l182 279h168l-440 -674v-473z" />
<glyph unicode="z" horiz-adv-x="1140" d="M1055 995l-549 -616q-75 -85 -128.5 -141.5t-69.5 -71.5l-15 -14l4 -5q62 3 156 3h602v-150h-969v152l573 634q64 71 113 123.5t63.5 67.5t14.5 16l-4 4h-146h-598v150h953v-152z" />
<glyph unicode="{" horiz-adv-x="825" d="M457 1161v-235q0 -73 -14.5 -132t-33.5 -92t-44 -57.5t-39.5 -32.5t-26.5 -12q10 -2 26 -11.5t40 -34.5t43.5 -59t34 -93t14.5 -130v-233q0 -98 22 -165t63 -101t88.5 -48t110.5 -14v-143q-207 0 -322.5 115t-115.5 348v241q1 68 -12 118.5t-30 75t-39.5 39t-35.5 17.5 t-25 4h-3v148q33 5 43 10q102 44 102 244v241q0 233 115.5 348t322.5 115v-145q-63 0 -110 -13.5t-88.5 -47.5t-63.5 -100.5t-22 -164.5z" />
<glyph unicode="|" horiz-adv-x="382" d="M123 1587h137v-1739h-137v1739z" />
<glyph unicode="}" horiz-adv-x="825" d="M369 39v235q0 73 14.5 132t34 92t44.5 57.5t39.5 32.5t26.5 12q-10 3 -26 12t-40.5 33.5t-44 58.5t-34 92.5t-14.5 129.5v235q0 98 -22 164.5t-63.5 100.5t-89 47.5t-110.5 13.5v145q208 0 323 -115t115 -350v-239q0 -68 13.5 -119t30.5 -75.5t40 -39.5t36 -18t25 -4h3 v-146q-35 -6 -49 -13q-99 -48 -99 -243v-239q0 -233 -115.5 -348t-322.5 -115v145q63 0 110.5 13.5t89 47.5t63.5 100.5t22 164.5z" />
<glyph unicode="~" d="M1094 709l26 -138q-24 -32 -84.5 -63t-140.5 -31q-75 0 -205 44t-209 44q-116 0 -205 -94l-30 135q31 36 90 68.5t139 32.5q75 0 204 -44.5t208 -44.5q111 0 207 91z" />
<glyph unicode="&#xa1;" horiz-adv-x="536" d="M268 1454q53 0 82 -29.5t29 -74.5t-29.5 -74t-81.5 -29t-81 29t-29 74t29 74.5t81 29.5zM186 0v1102h166v-1102h-166z" />
<glyph unicode="&#xa2;" horiz-adv-x="1196" d="M612 184q115 0 203 54t135 153l148 -41q-55 -129 -166.5 -210.5t-251.5 -98.5v-213h-137v213q-203 22 -334 168.5t-131 368.5q0 218 127.5 362t335.5 166v213h139v-213q145 -14 259 -94.5t167 -229.5l-148 -41q-42 104 -129 166t-211 62q-174 0 -278 -107t-104 -284 q0 -179 104 -286.5t272 -107.5z" />
<glyph unicode="&#xa3;" horiz-adv-x="1044" d="M961 150v-150h-887v150q79 14 105 60t26 134q0 48 -8 154h-125v131h110q-16 148 -16 207q0 159 98.5 246t270.5 87q356 0 403 -321l-150 -41q-19 114 -77.5 167.5t-169.5 53.5q-219 0 -219 -225q0 -20 14 -174h407v-131h-391q10 -95 10 -152q0 -79 -18 -127t-63 -69l2 -5 q20 5 350 5h328z" />
<glyph unicode="&#xa4;" horiz-adv-x="1320" d="M1221 1057l-146 -146q125 -144 125 -340q0 -176 -113 -325l150 -150l-88 -88l-150 150q-151 -125 -340 -125q-190 0 -337 125l-150 -150l-88 88l149 152q-110 141 -110 323q0 197 123 342l-146 144l88 88l148 -146q142 113 323 113q182 0 328 -111l146 144zM659 961 q-160 0 -272.5 -113t-112.5 -277q0 -163 112 -275t273 -112q163 0 276.5 111.5t113.5 275.5t-113.5 277t-276.5 113z" />
<glyph unicode="&#xa5;" horiz-adv-x="1019" d="M748 748h161v-123h-233l-60 -105h293v-125h-321v-395h-160v395h-317v125h290l-59 105h-231v123h159l-229 399h178l197 -359q15 -28 38 -67.5t39 -66t17 -27.5h4q1 1 17 27.5t39 66t38 67.5l197 359h172z" />
<glyph unicode="&#xa6;" horiz-adv-x="382" d="M260 1004h-137v583h137v-583zM260 -152h-137v584h137v-584z" />
<glyph unicode="&#xa7;" d="M997 516q90 -34 136.5 -91.5t46.5 -150.5q0 -153 -123.5 -227t-345.5 -74q-94 0 -176 13t-162 43.5t-132 90t-65 142.5l158 41q9 -103 105 -154t259 -51q312 0 312 183q0 38 -15.5 65t-43 45.5t-76.5 32.5t-105 25t-140 25q-36 6 -55 9q-61 10 -106.5 21t-101.5 32.5 t-91.5 48t-60.5 70t-25 97.5q0 165 195 229q-86 32 -130 84.5t-44 136.5q0 71 35.5 123t98 81t137.5 42.5t165 13.5q126 0 224.5 -25t175 -91t100.5 -170l-141 -39q-21 76 -73.5 123t-122.5 65t-165 18q-53 0 -97.5 -6.5t-84.5 -21t-63 -43t-23 -68.5q0 -42 20 -70.5 t77.5 -48.5t100.5 -29t148 -26q23 -4 35 -6q87 -14 143.5 -26.5t115.5 -33.5t92.5 -48.5t55 -69.5t21.5 -98q0 -172 -189 -232zM344 772q0 -37 19 -65t51.5 -46.5t79.5 -32.5t100 -24t115 -21q21 -3 32 -5q27 -3 99 -17q88 16 139 57t51 105q0 102 -126 147q-62 22 -236 47 q-18 3 -31 5l-78 14q-91 -14 -153 -54t-62 -110z" />
<glyph unicode="&#xa8;" horiz-adv-x="1091" d="M350 1589q-38 0 -65 28t-27 66q0 40 27.5 68.5t66.5 28.5q38 0 66 -28.5t28 -68.5q0 -38 -28 -66t-68 -28zM739 1589q-40 0 -68 28t-28 66q0 40 28 68.5t68 28.5q38 0 66.5 -28.5t28.5 -68.5q0 -38 -28.5 -66t-66.5 -28z" />
<glyph unicode="&#xa9;" horiz-adv-x="1646" d="M821 1288q205 0 375 -94t270.5 -265.5t100.5 -385.5q0 -213 -100.5 -385t-270.5 -266.5t-375 -94.5q-152 0 -288.5 56t-237 153t-159 237t-58.5 300q0 214 100 385.5t269.5 265.5t373.5 94zM821 1192q-184 0 -330 -80t-229.5 -228t-83.5 -339t83.5 -340t230 -230 t329.5 -81q184 0 331 80.5t231.5 229.5t84.5 341t-84.5 340t-231.5 227.5t-331 79.5zM1063 401l111 -34q-47 -98 -143 -156.5t-220 -58.5q-174 0 -284.5 110t-110.5 281q0 173 113 282t286 109q124 0 220 -60t132 -169l-108 -31q-6 19 -20.5 41t-41.5 48t-74 43t-104 17 q-126 0 -204 -76t-78 -202t76.5 -203.5t201.5 -77.5q85 0 148.5 37.5t99.5 99.5z" />
<glyph unicode="&#xaa;" horiz-adv-x="819" d="M184 481h-112l274 666h127l272 -666h-114l-64 160h-319zM410 1038h-4q-1 0 -9 -21.5t-26 -68t-35 -88.5l-53 -131h249l-53 131q-17 43 -34.5 88.5t-25.5 67.5t-9 22zM748 342v-113h-676v113h676z" />
<glyph unicode="&#xab;" horiz-adv-x="1325" d="M1106 1051l96 -97l-393 -381v-6l393 -381l-96 -96l-481 481zM604 1051l96 -97l-393 -381v-6l393 -381l-96 -96l-481 481z" />
<glyph unicode="&#xad;" horiz-adv-x="1189" d="M983 520h-778v142h778v-142z" />
<glyph unicode="&#xae;" horiz-adv-x="1646" d="M821 1288q205 0 375 -94t270.5 -265.5t100.5 -385.5q0 -213 -100.5 -385t-270.5 -266.5t-375 -94.5q-152 0 -288.5 56t-237 153t-159 237t-58.5 300q0 214 100 385.5t269.5 265.5t373.5 94zM821 1192q-184 0 -330 -80t-229.5 -228t-83.5 -339t83.5 -340t230 -230 t329.5 -81q184 0 331 80.5t231.5 229.5t84.5 341t-84.5 340t-231.5 227.5t-331 79.5zM1006 168l-175 301q-27 -2 -73 -2h-74v-299h-123v756h258q141 0 220 -61.5t79 -170.5q0 -82 -44.5 -133.5t-121.5 -69.5l187 -321h-133zM684 563h141q170 0 170 125q0 63 -44.5 95 t-125.5 32h-141v-252z" />
<glyph unicode="&#xaf;" horiz-adv-x="1091" d="M844 1587h-596v142h596v-142z" />
<glyph unicode="&#xb0;" horiz-adv-x="534" d="M266 1206q-101 0 -166 64.5t-65 165.5t65 165t166 64q103 0 168.5 -64t65.5 -165t-65.5 -165.5t-168.5 -64.5zM266 1311q56 0 91.5 35.5t35.5 89.5q0 57 -35 92t-92 35q-56 0 -90.5 -35t-34.5 -92q0 -54 35 -89.5t90 -35.5z" />
<glyph unicode="&#xb1;" d="M1073 772v-141h-313v-326h-152v326h-313v141h313l-2 330h154v-330h313zM295 141h778v-141h-778v141z" />
<glyph unicode="&#xb2;" horiz-adv-x="696" d="M66 967v129l333 252q113 78 113 182q0 65 -42 104t-122 39q-75 0 -117 -32t-61 -105l-98 29q49 217 284 217q128 0 201.5 -65.5t73.5 -178.5q0 -135 -146 -252q-45 -37 -115 -89t-117 -86t-50 -38l4 -6q54 6 151 6h279v-106h-571z" />
<glyph unicode="&#xb3;" horiz-adv-x="696" d="M469 1382v-6q74 -9 124 -61t50 -133q0 -102 -78.5 -167t-197.5 -65q-131 0 -214.5 68t-97.5 176l109 31q5 -78 56 -124t138 -46q82 0 126 40.5t44 100.5q0 63 -48.5 102t-127.5 39h-67v82h63q78 0 125 38.5t47 96.5q0 52 -41 88.5t-131 36.5q-82 0 -120 -34.5t-52 -108.5 l-100 29q36 217 282 217q136 0 205.5 -59.5t69.5 -151.5q0 -77 -48 -130t-116 -59z" />
<glyph unicode="&#xb4;" horiz-adv-x="1091" d="M526 1544h-155l213 330l137 -45z" />
<glyph unicode="&#xb6;" horiz-adv-x="1187" d="M862 -287v1278h-182v-1278h-168v703q-215 0 -324.5 98.5t-109.5 269.5q0 168 109.5 265.5t324.5 97.5h518v-1434h-168z" />
<glyph unicode="&#xb7;" horiz-adv-x="458" d="M229 473q-53 0 -81.5 30t-28.5 75t29 73.5t81 28.5t81.5 -29t29.5 -73q0 -46 -29.5 -75.5t-81.5 -29.5z" />
<glyph unicode="&#xb8;" horiz-adv-x="1091" d="M776 -180q0 -83 -63.5 -127.5t-186.5 -44.5q-108 0 -170 30v115q50 -29 150 -29q145 0 145 76q0 47 -55 67.5t-174 22.5v119h123v-53q231 -17 231 -176z" />
<glyph unicode="&#xb9;" horiz-adv-x="696" d="M618 967h-489v106h184v377q0 31 3.5 98.5t5.5 75.5h-7q-1 0 -8.5 -8t-21.5 -23t-25 -26l-88 -88l-76 73l223 213h113v-692h186v-106z" />
<glyph unicode="&#xba;" horiz-adv-x="854" d="M72 813q0 154 102.5 255t251.5 101q148 0 252 -101.5t104 -254.5q0 -150 -104 -251t-252 -101q-149 0 -251.5 100.5t-102.5 251.5zM182 813q0 -106 68.5 -176t175.5 -70t175.5 70t68.5 176q0 108 -68.5 179t-175.5 71t-175.5 -71t-68.5 -179zM762 227h-668v113h668v-113z " />
<glyph unicode="&#xbb;" horiz-adv-x="1325" d="M219 90l-96 96l393 381v6l-393 381l96 97l481 -480zM721 90l-96 96l393 381v6l-393 381l96 97l481 -480z" />
<glyph unicode="&#xbc;" horiz-adv-x="1675" d="M1116 1434l-430 -1434h-127l428 1434h129zM618 635h-489v104h184v379q0 31 3.5 98.5t5.5 75.5h-7q-1 0 -8.5 -8t-21.5 -23t-25 -26l-88 -88l-76 74l223 213h113v-695h186v-104zM1509 0h-114v203h-383v106l340 492h157v-492h136v-106h-136v-203zM1395 309v189q0 47 2 92.5 t4 72t2 27.5h-8q-2 0 -133 -186.5t-132 -190.5l5 -6h7q6 0 17 0.5t24 1t30 0.5h32h150z" />
<glyph unicode="&#xbd;" horiz-adv-x="1675" d="M618 635h-489v106h184v377q0 31 3.5 98.5t5.5 75.5h-7q-1 0 -8.5 -8t-21.5 -23t-25 -26l-88 -88l-76 74l223 213h113v-693h186v-106zM1116 1434l-430 -1434h-127l428 1434h129zM1044 0v131l336 252q113 80 113 182q0 64 -43 104t-123 40q-75 0 -117 -32.5t-61 -105.5 l-98 29q49 217 286 217q127 0 200 -65.5t73 -178.5q0 -74 -37 -133.5t-109 -117.5q-46 -37 -115 -89t-115.5 -86.5t-49.5 -37.5l2 -7q36 4 151 4h281v-106h-574z" />
<glyph unicode="&#xbe;" horiz-adv-x="1675" d="M469 1051v-7q74 -9 124 -61t50 -133q0 -102 -78.5 -167t-197.5 -65q-131 0 -214.5 68t-97.5 176l109 31q5 -78 56 -124t138 -46q82 0 126 40.5t44 100.5q0 63 -48.5 102.5t-127.5 39.5h-67v81h63q78 0 125 39t47 97q0 52 -41 88.5t-131 36.5q-82 0 -120 -35t-52 -109 l-100 29q36 217 282 217q136 0 205.5 -59.5t69.5 -151.5q0 -77 -48 -129.5t-116 -58.5zM1116 1434l-430 -1434h-127l428 1434h129zM1509 0h-114v203h-383v106l340 492h157v-492h136v-106h-136v-203zM1395 309v189q0 47 2 92.5t4 72t2 27.5h-8q-2 0 -133 -186.5t-132 -190.5 l5 -6h7q6 0 17 0.5t24 1t30 0.5h32h150z" />
<glyph unicode="&#xbf;" horiz-adv-x="1153" d="M602 1454q52 0 81.5 -29.5t29.5 -74.5t-29.5 -74t-81.5 -29q-53 0 -81.5 29t-28.5 74t29 74.5t81 29.5zM684 1102v-363q-243 -85 -338.5 -163.5t-95.5 -186.5q0 -48 15 -91t48.5 -82t97.5 -62t152 -23q153 0 237 66.5t118 193.5l157 -43q-44 -181 -179.5 -279t-340.5 -98 q-120 0 -214 33.5t-150 90.5t-84.5 126.5t-28.5 147.5q0 73 25.5 137t65.5 109.5t100 86t117 67t128 52.5v281h170z" />
<glyph unicode="&#xc0;" horiz-adv-x="1499" d="M690 1544l-194 285l137 45l213 -330h-156zM1112 381h-727l-160 -381h-178l610 1434h183l610 -1434h-178zM1049 532l-158 375q-20 47 -58 139t-60 144t-23 53h-5q-3 -3 -139 -334l-157 -377h600z" />
<glyph unicode="&#xc1;" horiz-adv-x="1499" d="M795 1544h-156l213 330l137 -45zM1112 381h-727l-160 -381h-178l610 1434h183l610 -1434h-178zM1049 532l-158 375q-20 47 -58 139t-60 144t-23 53h-5q-3 -3 -139 -334l-157 -377h600z" />
<glyph unicode="&#xc2;" horiz-adv-x="1499" d="M530 1548l-79 92l294 242l291 -242l-78 -94l-213 180zM1112 381h-727l-160 -381h-178l610 1434h183l610 -1434h-178zM1049 532l-158 375q-20 47 -58 139t-60 144t-23 53h-5q-3 -3 -139 -334l-157 -377h600z" />
<glyph unicode="&#xc3;" horiz-adv-x="1499" d="M598 1663q-88 0 -145 -57l-35 120q56 72 168 72q57 0 148 -36t153 -36q83 0 141 54l33 -121q-17 -22 -59 -44t-105 -22q-59 0 -150.5 35t-148.5 35zM1112 381h-727l-160 -381h-178l610 1434h183l610 -1434h-178zM1049 532l-158 375q-20 47 -58 139t-60 144t-23 53h-5 q-3 -3 -139 -334l-157 -377h600z" />
<glyph unicode="&#xc4;" horiz-adv-x="1499" d="M555 1589q-39 0 -66.5 27.5t-27.5 66.5q0 40 28 68.5t66 28.5q39 0 66.5 -28.5t27.5 -68.5q0 -38 -28 -66t-66 -28zM942 1589q-39 0 -66.5 27.5t-27.5 66.5q0 40 27.5 68.5t66.5 28.5t66.5 -28.5t27.5 -68.5q0 -39 -27.5 -66.5t-66.5 -27.5zM1112 381h-727l-160 -381 h-178l610 1434h183l610 -1434h-178zM1049 532l-158 375q-20 47 -58 139t-60 144t-23 53h-5q-3 -3 -139 -334l-157 -377h600z" />
<glyph unicode="&#xc5;" horiz-adv-x="1499" d="M748 1513q-93 0 -151 53t-58 140q0 86 58 138t151 52q94 0 151 -52t57 -138q0 -88 -57 -140.5t-151 -52.5zM748 1798q-43 0 -71 -25.5t-28 -66.5q0 -42 28 -68t71 -26q44 0 71 25.5t27 68.5q0 41 -27 66.5t-71 25.5zM1112 381h-727l-160 -381h-178l610 1434h183 l610 -1434h-178zM1049 532l-158 375q-20 47 -58 139t-60 144t-23 53h-5q-3 -3 -139 -334l-157 -377h600z" />
<glyph unicode="&#xc6;" horiz-adv-x="2017" d="M1915 150v-150h-965v387h-563l-162 -387h-178l612 1434h1252v-150h-797v-463h629v-143h-629v-528h801zM950 530v754h-186l-315 -754h501z" />
<glyph unicode="&#xc7;" horiz-adv-x="1574" d="M1323 446l162 -43q-71 -175 -218 -284.5t-339 -136.5q143 -38 143 -162q0 -83 -63.5 -127.5t-186.5 -44.5q-108 0 -170 30v115q50 -29 150 -29q145 0 145 76q0 47 -55 67.5t-174 22.5v50q-185 22 -329 117.5t-227 257.5t-83 366q0 166 56.5 305.5t154.5 234.5t233.5 148 t292.5 53q237 0 408 -111t243 -280l-161 -45q-19 34 -43 67t-68 73t-95 69.5t-127 49.5t-161 20q-252 0 -408.5 -159.5t-156.5 -426.5q0 -133 43.5 -244t119 -185.5t178 -115.5t220.5 -41q174 0 311 84t205 229z" />
<glyph unicode="&#xc8;" horiz-adv-x="1228" d="M530 1874l213 -330h-155l-195 285zM158 0v1434h964v-156h-798v-451h622v-155h-622v-516h802v-156h-968z" />
<glyph unicode="&#xc9;" horiz-adv-x="1228" d="M694 1544h-155l213 330l137 -45zM158 0v1434h964v-156h-798v-451h622v-155h-622v-516h802v-156h-968z" />
<glyph unicode="&#xca;" horiz-adv-x="1228" d="M936 1640l-80 -94l-213 180l-215 -178l-78 92l293 242zM158 0v1434h964v-156h-798v-451h622v-155h-622v-516h802v-156h-968z" />
<glyph unicode="&#xcb;" horiz-adv-x="1228" d="M453 1589q-38 0 -66.5 28t-28.5 66q0 40 28.5 68.5t68.5 28.5q38 0 65 -28.5t27 -68.5q0 -39 -27.5 -66.5t-66.5 -27.5zM840 1589q-40 0 -67.5 27.5t-27.5 66.5q0 40 27.5 68.5t67.5 28.5t68 -28.5t28 -68.5q0 -38 -28 -66t-68 -28zM158 0v1434h964v-156h-798v-451h622 v-155h-622v-516h802v-156h-968z" />
<glyph unicode="&#xcc;" horiz-adv-x="481" d="M127 1874l211 -330h-156l-194 285zM158 0v1434h166v-1434h-166z" />
<glyph unicode="&#xcd;" horiz-adv-x="481" d="M289 1544h-156l213 330l137 -45zM158 0v1434h166v-1434h-166z" />
<glyph unicode="&#xce;" horiz-adv-x="481" d="M479 1645l-84 -91l-153 160l-154 -158l-84 91l238 235zM158 0v1434h166v-1434h-166z" />
<glyph unicode="&#xcf;" horiz-adv-x="481" d="M117 1589q-39 0 -66.5 27.5t-27.5 66.5q0 40 28 68.5t66 28.5q39 0 66.5 -28.5t27.5 -68.5q0 -38 -28 -66t-66 -28zM367 1589q-39 0 -67 27.5t-28 66.5q0 40 27.5 68.5t67.5 28.5q39 0 66.5 -28.5t27.5 -68.5q0 -39 -27.5 -66.5t-66.5 -27.5zM158 0v1434h166v-1434h-166z " />
<glyph unicode="&#xd0;" horiz-adv-x="1492" d="M158 1434h495q221 0 393.5 -87.5t270.5 -253t98 -382.5q0 -163 -56.5 -297t-156.5 -224.5t-237 -140t-297 -49.5h-510v674h-135v149h135v611zM324 156h335q122 0 227 35t186.5 102t128 174.5t46.5 243.5t-46.5 244.5t-128.5 178.5t-190.5 107t-234.5 37h-323v-455h362 v-149h-362v-518z" />
<glyph unicode="&#xd1;" horiz-adv-x="1488" d="M1034 1780l35 -121q-12 -13 -29 -26t-55 -26.5t-82 -13.5q-59 0 -150 35t-147 35q-95 0 -145 -57l-35 120q58 72 166 72q57 0 148 -36t153 -36q83 0 141 54zM1163 0l-839 1165h-5l1 -10v-28t1 -42t1.5 -55t0.5 -63.5t0.5 -71t0.5 -74.5v-821h-166v1434h168l839 -1155h4 v10q0 10 -0.5 28t-1 42t-1 54t-1 62t-0.5 68.5v70.5v820h168v-1434h-170z" />
<glyph unicode="&#xd2;" horiz-adv-x="1642" d="M707 1874l213 -330h-156l-195 285zM78 719q0 163 57 302.5t156.5 236t236.5 150.5t293 54t292.5 -54t236.5 -150.5t157.5 -236t57.5 -302.5q0 -164 -57.5 -304t-157.5 -236.5t-236.5 -151t-292.5 -54.5q-209 0 -378 92.5t-267 263.5t-98 390zM246 719q0 -178 76.5 -312.5 t206 -204t292.5 -69.5q162 0 292 69.5t207 204t77 312.5t-77 312.5t-207 204t-292 69.5t-292 -70t-206.5 -204.5t-76.5 -311.5z" />
<glyph unicode="&#xd3;" horiz-adv-x="1642" d="M870 1544h-155l213 330l137 -45zM78 719q0 163 57 302.5t156.5 236t236.5 150.5t293 54t292.5 -54t236.5 -150.5t157.5 -236t57.5 -302.5q0 -164 -57.5 -304t-157.5 -236.5t-236.5 -151t-292.5 -54.5q-209 0 -378 92.5t-267 263.5t-98 390zM246 719q0 -178 76.5 -312.5 t206 -204t292.5 -69.5q162 0 292 69.5t207 204t77 312.5t-77 312.5t-207 204t-292 69.5t-292 -70t-206.5 -204.5t-76.5 -311.5z" />
<glyph unicode="&#xd4;" horiz-adv-x="1642" d="M1112 1640l-80 -94l-213 180l-215 -178l-78 92l293 242zM78 719q0 163 57 302.5t156.5 236t236.5 150.5t293 54t292.5 -54t236.5 -150.5t157.5 -236t57.5 -302.5q0 -164 -57.5 -304t-157.5 -236.5t-236.5 -151t-292.5 -54.5q-209 0 -378 92.5t-267 263.5t-98 390z M246 719q0 -178 76.5 -312.5t206 -204t292.5 -69.5q162 0 292 69.5t207 204t77 312.5t-77 312.5t-207 204t-292 69.5t-292 -70t-206.5 -204.5t-76.5 -311.5z" />
<glyph unicode="&#xd5;" horiz-adv-x="1642" d="M1102 1780l35 -121q-12 -13 -29 -26t-55 -26.5t-82 -13.5q-59 0 -150 35t-147 35q-96 0 -146 -57l-34 120q18 26 58.5 49t106.5 23q57 0 148 -36t154 -36q83 0 141 54zM78 719q0 163 57 302.5t156.5 236t236.5 150.5t293 54t292.5 -54t236.5 -150.5t157.5 -236 t57.5 -302.5q0 -164 -57.5 -304t-157.5 -236.5t-236.5 -151t-292.5 -54.5q-209 0 -378 92.5t-267 263.5t-98 390zM246 719q0 -178 76.5 -312.5t206 -204t292.5 -69.5q162 0 292 69.5t207 204t77 312.5t-77 312.5t-207 204t-292 69.5t-292 -70t-206.5 -204.5t-76.5 -311.5z " />
<glyph unicode="&#xd6;" horiz-adv-x="1642" d="M629 1589q-38 0 -66 28t-28 66q0 40 28 68.5t68 28.5q38 0 65 -28.5t27 -68.5q0 -39 -27.5 -66.5t-66.5 -27.5zM1016 1589q-39 0 -66.5 27.5t-27.5 66.5q0 40 27.5 68.5t66.5 28.5q40 0 68 -28.5t28 -68.5q0 -38 -28 -66t-68 -28zM78 719q0 163 57 302.5t156.5 236 t236.5 150.5t293 54t292.5 -54t236.5 -150.5t157.5 -236t57.5 -302.5q0 -164 -57.5 -304t-157.5 -236.5t-236.5 -151t-292.5 -54.5q-209 0 -378 92.5t-267 263.5t-98 390zM246 719q0 -178 76.5 -312.5t206 -204t292.5 -69.5q162 0 292 69.5t207 204t77 312.5t-77 312.5 t-207 204t-292 69.5t-292 -70t-206.5 -204.5t-76.5 -311.5z" />
<glyph unicode="&#xd7;" d="M786 594l256 -254l-102 -102l-256 256l-256 -256l-100 102l256 254l-256 256l100 100l256 -254l256 254l100 -102z" />
<glyph unicode="&#xd8;" horiz-adv-x="1642" d="M1493 1462l-152 -196q106 -101 165 -241t59 -306q0 -164 -57.5 -304t-157.5 -236.5t-236.5 -151t-292.5 -54.5q-216 0 -389 101l-153 -203l-125 96l151 201q-108 99 -167.5 240t-59.5 311q0 163 57 302.5t156.5 236t236.5 150.5t293 54q218 0 393 -102l152 196zM246 719 q0 -259 160 -422l710 934q-135 74 -295 74q-162 0 -292 -70t-206.5 -204.5t-76.5 -311.5zM821 133q160 0 290 69t208 204t78 313q0 253 -156 416l-711 -932q134 -70 291 -70z" />
<glyph unicode="&#xd9;" horiz-adv-x="1425" d="M600 1874l213 -330h-156l-194 285zM1286 1434v-836q0 -304 -147.5 -464.5t-425.5 -160.5q-280 0 -427 160t-147 465v836h170v-836q0 -235 99 -350t305 -115q208 0 307.5 115t99.5 350v836h166z" />
<glyph unicode="&#xda;" horiz-adv-x="1425" d="M762 1544h-156l213 330l137 -45zM1286 1434v-836q0 -304 -147.5 -464.5t-425.5 -160.5q-280 0 -427 160t-147 465v836h170v-836q0 -235 99 -350t305 -115q208 0 307.5 115t99.5 350v836h166z" />
<glyph unicode="&#xdb;" horiz-adv-x="1425" d="M1004 1640l-78 -94l-213 180l-215 -178l-80 92l295 242zM1286 1434v-836q0 -304 -147.5 -464.5t-425.5 -160.5q-280 0 -427 160t-147 465v836h170v-836q0 -235 99 -350t305 -115q208 0 307.5 115t99.5 350v836h166z" />
<glyph unicode="&#xdc;" horiz-adv-x="1425" d="M522 1589q-39 0 -66.5 27.5t-27.5 66.5q0 40 28 68.5t66 28.5q39 0 66.5 -28.5t27.5 -68.5q0 -38 -28 -66t-66 -28zM909 1589q-39 0 -66.5 27.5t-27.5 66.5q0 40 27.5 68.5t66.5 28.5q40 0 67.5 -28.5t27.5 -68.5q0 -39 -28 -66.5t-67 -27.5zM1286 1434v-836 q0 -304 -147.5 -464.5t-425.5 -160.5q-280 0 -427 160t-147 465v836h170v-836q0 -235 99 -350t305 -115q208 0 307.5 115t99.5 350v836h166z" />
<glyph unicode="&#xdd;" horiz-adv-x="1345" d="M735 1544h-155l213 330l137 -45zM756 623v-623h-168v623l-553 811h192l322 -471q32 -46 64 -93t47 -70t16 -24h4l15 23q15 23 45 68t63 91l325 476h183z" />
<glyph unicode="&#xde;" horiz-adv-x="1150" d="M324 1143h249q249 0 386 -111t137 -313t-136.5 -310t-386.5 -108h-249v-301h-166v1434h166v-291zM324 453h256q171 0 260.5 67.5t89.5 198.5q0 132 -89 200t-261 68h-256v-534z" />
<glyph unicode="&#xdf;" horiz-adv-x="1189" d="M756 698h12q156 0 259 -96.5t103 -257.5q0 -162 -103 -266.5t-277 -104.5q-90 0 -162.5 26t-116.5 67l68 114q86 -71 196 -71q107 0 173.5 64.5t66.5 164.5q0 98 -65.5 160.5t-178.5 62.5h-143v137l170 295l-2 4h-97h-342v-997h-159v1147h856l-258 -445v-4z" />
<glyph unicode="&#xe0;" horiz-adv-x="1220" d="M553 1257l-195 285l140 45l211 -330h-156zM885 307h-553l-119 -307h-166l469 1147h189l469 -1147h-168zM829 446l-100 256q-117 293 -117 308h-6q0 -8 -123 -322l-96 -242h442z" />
<glyph unicode="&#xe1;" horiz-adv-x="1220" d="M659 1257h-155l213 330l137 -45zM885 307h-553l-119 -307h-166l469 1147h189l469 -1147h-168zM829 446l-100 256q-117 293 -117 308h-6q0 -8 -123 -322l-96 -242h442z" />
<glyph unicode="&#xe2;" horiz-adv-x="1220" d="M459 1270l-84 90l237 235l238 -237l-84 -90l-154 159zM885 307h-553l-119 -307h-166l469 1147h189l469 -1147h-168zM829 446l-100 256q-117 293 -117 308h-6q0 -8 -123 -322l-96 -242h442z" />
<glyph unicode="&#xe3;" horiz-adv-x="1220" d="M473 1376q-75 0 -125 -57l-33 123q14 24 53 46.5t93 22.5q53 0 136 -35.5t138 -35.5q30 0 57.5 10.5t37 18t28.5 24.5l33 -123q-12 -20 -51.5 -41.5t-91.5 -21.5q-55 0 -140 34.5t-135 34.5zM885 307h-553l-119 -307h-166l469 1147h189l469 -1147h-168zM829 446l-100 256 q-117 293 -117 308h-6q0 -8 -123 -322l-96 -242h442z" />
<glyph unicode="&#xe4;" horiz-adv-x="1220" d="M418 1303q-38 0 -65 28t-27 66q0 40 27 68t67 28q38 0 66 -28t28 -68q0 -38 -28 -66t-68 -28zM807 1303q-40 0 -68 28t-28 66q0 40 28 68t68 28q38 0 66 -28t28 -68q0 -38 -28 -66t-66 -28zM885 307h-553l-119 -307h-166l469 1147h189l469 -1147h-168zM829 446l-100 256 q-117 293 -117 308h-6q0 -8 -123 -322l-96 -242h442z" />
<glyph unicode="&#xe5;" horiz-adv-x="1220" d="M612 1227q-93 0 -151 52.5t-58 139.5q0 86 58 138.5t151 52.5t151 -52.5t58 -138.5q0 -87 -58 -139.5t-151 -52.5zM612 1511q-44 0 -71 -25.5t-27 -66.5q0 -43 27 -68.5t71 -25.5t71.5 25.5t27.5 68.5q0 41 -27.5 66.5t-71.5 25.5zM885 307h-553l-119 -307h-166l469 1147 h189l469 -1147h-168zM829 446l-100 256q-117 293 -117 308h-6q0 -8 -123 -322l-96 -242h442z" />
<glyph unicode="&#xe6;" horiz-adv-x="1669" d="M1567 150v-150h-809v299h-428l-119 -299h-164l471 1147h240h798v-150h-645v-331h500v-146h-500v-370h656zM758 438v563h-152l-221 -563h373z" />
<glyph unicode="&#xe7;" horiz-adv-x="1320" d="M1077 352l154 -41q-64 -134 -181 -220t-270 -107q164 -33 164 -166q0 -84 -64 -129t-186 -45q-111 0 -170 32v115q53 -31 148 -31q147 0 147 78q0 46 -54.5 66t-174.5 22v58q-227 31 -369.5 193.5t-142.5 395.5q0 169 78.5 305.5t217 213.5t310.5 77q117 0 220 -36 t187.5 -113.5t131.5 -188.5l-152 -40q-12 21 -17.5 29.5t-26.5 37t-39.5 45.5t-51.5 42.5t-67 40t-82 25.5t-101 11q-195 0 -320.5 -125.5t-125.5 -323.5q0 -199 126 -324.5t318 -125.5q135 0 236 63t157 166z" />
<glyph unicode="&#xe8;" horiz-adv-x="1075" d="M449 1587l213 -330h-158l-195 285zM158 0v1147h805v-150h-646v-331h498v-146h-498v-370h656v-150h-815z" />
<glyph unicode="&#xe9;" horiz-adv-x="1075" d="M610 1257h-155l213 330l137 -45zM158 0v1147h805v-150h-646v-331h498v-146h-498v-370h656v-150h-815z" />
<glyph unicode="&#xea;" horiz-adv-x="1075" d="M852 1354l-78 -94l-215 180l-215 -178l-78 92l293 241zM158 0v1147h805v-150h-646v-331h498v-146h-498v-370h656v-150h-815z" />
<glyph unicode="&#xeb;" horiz-adv-x="1075" d="M369 1303q-38 0 -65.5 28t-27.5 66q0 40 27.5 68t67.5 28q38 0 66 -28t28 -68q0 -38 -28 -66t-68 -28zM758 1303q-40 0 -68 28t-28 66q0 40 28 68t68 28q38 0 66 -28t28 -68q0 -38 -28 -66t-66 -28zM158 0v1147h805v-150h-646v-331h498v-146h-498v-370h656v-150h-815z " />
<glyph unicode="&#xec;" horiz-adv-x="475" d="M123 1587l213 -330h-156l-194 285zM158 0v1147h159v-1147h-159z" />
<glyph unicode="&#xed;" horiz-adv-x="475" d="M287 1257h-156l213 330l137 -45zM158 0v1147h159v-1147h-159z" />
<glyph unicode="&#xee;" horiz-adv-x="475" d="M475 1358l-82 -90l-153 159l-156 -157l-82 90l238 235zM158 0v1147h159v-1147h-159z" />
<glyph unicode="&#xef;" horiz-adv-x="475" d="M113 1303q-38 0 -65.5 28t-27.5 66q0 40 27.5 68t67.5 28q38 0 66 -28t28 -68q0 -38 -28 -66t-68 -28zM365 1303q-39 0 -67 27.5t-28 66.5q0 40 27.5 68t67.5 28q38 0 66 -28t28 -68q0 -38 -28 -66t-66 -28zM158 0v1147h159v-1147h-159z" />
<glyph unicode="&#xf0;" horiz-adv-x="1265" d="M158 1147h395q282 0 458.5 -156.5t176.5 -421.5q0 -175 -81.5 -305.5t-222 -197t-321.5 -66.5h-405v518h-135v144h135v485zM317 150h242q212 0 339.5 107.5t127.5 311.5q0 205 -128.5 316.5t-346.5 111.5h-234v-335h355v-144h-355v-368z" />
<glyph unicode="&#xf1;" horiz-adv-x="1290" d="M883 1493l32 -123q-12 -20 -51.5 -41.5t-91.5 -21.5q-55 0 -139.5 34.5t-134.5 34.5q-75 0 -125 -57l-33 123q15 24 53 46.5t92 22.5q53 0 136.5 -35.5t138.5 -35.5q30 0 57.5 10.5t37 18t28.5 24.5zM1133 0h-164l-652 903h-4v-7q0 -8 0.5 -22t1 -32t1 -41.5t1 -48 t0.5 -54v-57.5v-641h-159v1147h164l649 -889h4v8q0 7 -0.5 19.5t-0.5 30v39.5t-0.5 45t-0.5 50.5v53.5v643h160v-1147z" />
<glyph unicode="&#xf2;" horiz-adv-x="1361" d="M567 1587l213 -330h-155l-197 285zM78 571q0 171 79.5 308.5t217 213.5t305.5 76t305.5 -76t217 -213.5t79.5 -308.5q0 -127 -46.5 -238t-126.5 -189.5t-191.5 -123.5t-237.5 -45t-237.5 45t-191.5 123.5t-126.5 189.5t-46.5 238zM240 571q0 -196 125.5 -322t314.5 -126 t314.5 126t125.5 322q0 199 -125 325t-315 126t-315 -126t-125 -325z" />
<glyph unicode="&#xf3;" horiz-adv-x="1361" d="M729 1257h-156l213 330l138 -45zM78 571q0 171 79.5 308.5t217 213.5t305.5 76t305.5 -76t217 -213.5t79.5 -308.5q0 -127 -46.5 -238t-126.5 -189.5t-191.5 -123.5t-237.5 -45t-237.5 45t-191.5 123.5t-126.5 189.5t-46.5 238zM240 571q0 -196 125.5 -322t314.5 -126 t314.5 126t125.5 322q0 199 -125 325t-315 126t-315 -126t-125 -325z" />
<glyph unicode="&#xf4;" horiz-adv-x="1361" d="M971 1354l-78 -94l-215 180l-215 -178l-78 92l293 241zM78 571q0 171 79.5 308.5t217 213.5t305.5 76t305.5 -76t217 -213.5t79.5 -308.5q0 -127 -46.5 -238t-126.5 -189.5t-191.5 -123.5t-237.5 -45t-237.5 45t-191.5 123.5t-126.5 189.5t-46.5 238zM240 571 q0 -196 125.5 -322t314.5 -126t314.5 126t125.5 322q0 199 -125 325t-315 126t-315 -126t-125 -325z" />
<glyph unicode="&#xf5;" horiz-adv-x="1361" d="M928 1493l33 -123q-12 -20 -52 -41.5t-92 -21.5q-55 0 -139.5 34.5t-134.5 34.5q-75 0 -125 -57l-33 123q15 24 53 46.5t92 22.5q53 0 136.5 -35.5t138.5 -35.5q30 0 57.5 10.5t37 18t28.5 24.5zM78 571q0 171 79.5 308.5t217 213.5t305.5 76t305.5 -76t217 -213.5 t79.5 -308.5q0 -127 -46.5 -238t-126.5 -189.5t-191.5 -123.5t-237.5 -45t-237.5 45t-191.5 123.5t-126.5 189.5t-46.5 238zM240 571q0 -196 125.5 -322t314.5 -126t314.5 126t125.5 322q0 199 -125 325t-315 126t-315 -126t-125 -325z" />
<glyph unicode="&#xf6;" horiz-adv-x="1361" d="M487 1303q-38 0 -65 28t-27 66q0 40 27 68t67 28q39 0 67 -28.5t28 -67.5q0 -38 -28.5 -66t-68.5 -28zM877 1303q-40 0 -68.5 28t-28.5 66q0 40 28.5 68t68.5 28q38 0 66 -28t28 -68q0 -38 -28 -66t-66 -28zM78 571q0 171 79.5 308.5t217 213.5t305.5 76t305.5 -76 t217 -213.5t79.5 -308.5q0 -127 -46.5 -238t-126.5 -189.5t-191.5 -123.5t-237.5 -45t-237.5 45t-191.5 123.5t-126.5 189.5t-46.5 238zM240 571q0 -196 125.5 -322t314.5 -126t314.5 126t125.5 322q0 199 -125 325t-315 126t-315 -126t-125 -325z" />
<glyph unicode="&#xf7;" d="M684 870q-52 0 -81.5 30t-29.5 75q0 44 29.5 73t81.5 29q53 0 82 -29t29 -73q0 -46 -29.5 -75.5t-81.5 -29.5zM1073 520h-778v142h778v-142zM684 113q-52 0 -81.5 29.5t-29.5 74.5q0 44 29.5 73t81.5 29q53 0 82 -29t29 -73q0 -46 -29.5 -75t-81.5 -29z" />
<glyph unicode="&#xf8;" horiz-adv-x="1361" d="M1225 1159l-121 -153q85 -81 131.5 -193t46.5 -242q0 -127 -46.5 -238t-126.5 -189.5t-191.5 -123.5t-237.5 -45q-174 0 -313 82l-117 -153l-119 90l119 151q-81 81 -126.5 190.5t-45.5 235.5q0 171 79.5 308.5t217 213.5t305.5 76q172 0 305 -77l121 155zM240 571 q0 -179 106 -301l547 701q-97 51 -213 51q-190 0 -315 -126t-125 -325zM680 123q189 0 314.5 126t125.5 322q0 187 -110 310l-549 -703q99 -55 219 -55z" />
<glyph unicode="&#xf9;" horiz-adv-x="1251" d="M516 1587l213 -330h-158l-194 285zM1112 1147v-653q0 -258 -125.5 -388.5t-361.5 -130.5t-361 130.5t-125 388.5v653h162v-670q0 -179 80.5 -266.5t245.5 -87.5t245 87.5t80 266.5v670h160z" />
<glyph unicode="&#xfa;" horiz-adv-x="1251" d="M678 1257h-156l213 330l137 -45zM1112 1147v-653q0 -258 -125.5 -388.5t-361.5 -130.5t-361 130.5t-125 388.5v653h162v-670q0 -179 80.5 -266.5t245.5 -87.5t245 87.5t80 266.5v670h160z" />
<glyph unicode="&#xfb;" horiz-adv-x="1251" d="M920 1354l-78 -94l-215 180l-215 -178l-78 92l293 241zM1112 1147v-653q0 -258 -125.5 -388.5t-361.5 -130.5t-361 130.5t-125 388.5v653h162v-670q0 -179 80.5 -266.5t245.5 -87.5t245 87.5t80 266.5v670h160z" />
<glyph unicode="&#xfc;" horiz-adv-x="1251" d="M436 1303q-38 0 -65 28t-27 66q0 40 27 68t67 28q38 0 66 -28t28 -68q0 -38 -28 -66t-68 -28zM825 1303q-40 0 -68 28t-28 66q0 40 28 68t68 28q39 0 67 -28.5t28 -67.5q0 -38 -28.5 -66t-66.5 -28zM1112 1147v-653q0 -258 -125.5 -388.5t-361.5 -130.5t-361 130.5 t-125 388.5v653h162v-670q0 -179 80.5 -266.5t245.5 -87.5t245 87.5t80 266.5v670h160z" />
<glyph unicode="&#xfd;" horiz-adv-x="1107" d="M616 1257h-155l213 330l137 -45zM633 0h-160v473l-438 674h182l184 -281q40 -59 79.5 -119.5t59.5 -90.5l19 -31h4q1 1 20 30t60 92t80 121l182 279h168l-440 -674v-473z" />
<glyph unicode="&#xfe;" horiz-adv-x="972" d="M317 903h160q215 0 328 -82t113 -246q0 -158 -113 -237.5t-328 -79.5h-160v-258h-159v1147h159v-244zM317 389h164q141 0 208 43t67 141q0 97 -68 141t-207 44h-164v-369z" />
<glyph unicode="&#xff;" horiz-adv-x="1107" d="M375 1303q-38 0 -66 28t-28 66q0 40 28 68t68 28q38 0 65 -28t27 -68q0 -39 -27.5 -66.5t-66.5 -27.5zM762 1303q-39 0 -66.5 27.5t-27.5 66.5q0 40 27 68t67 28t67 -28t27 -68q0 -39 -27.5 -66.5t-66.5 -27.5zM633 0h-160v473l-438 674h182l184 -281q40 -59 79.5 -119.5 t59.5 -90.5l19 -31h4q1 1 20 30t60 92t80 121l182 279h168l-440 -674v-473z" />
<glyph unicode="&#x152;" horiz-adv-x="2041" d="M1931 0h-952q-49 -8 -154 -8q-213 0 -382.5 89.5t-267 255.5t-97.5 380t97.5 380t267.5 255.5t384 89.5q93 0 150 -8h950v-156h-797v-449h629v-155h-629v-518h801v-156zM246 719q0 -265 159 -420.5t422 -155.5q75 0 140 21v1110q-59 16 -140 16q-264 0 -422.5 -153 t-158.5 -418z" />
<glyph unicode="&#x153;" horiz-adv-x="1720" d="M1612 0h-795q-43 -6 -131 -6q-175 0 -313 71t-216.5 203.5t-78.5 304.5q0 260 171 420t439 160q82 0 133 -6h781v-150h-646v-331h498v-146h-498v-370h656v-150zM240 575q0 -198 123 -317t327 -119q49 0 113 11v847q-64 11 -113 11q-204 0 -327 -117.5t-123 -315.5z" />
<glyph unicode="&#x178;" horiz-adv-x="1345" d="M496 1589q-40 0 -67.5 27.5t-27.5 66.5q0 40 28.5 68.5t66.5 28.5q39 0 66.5 -28.5t27.5 -68.5q0 -38 -28 -66t-66 -28zM883 1589q-39 0 -67 27.5t-28 66.5q0 40 27.5 68.5t67.5 28.5q38 0 66 -28.5t28 -68.5q0 -38 -28 -66t-66 -28zM756 623v-623h-168v623l-553 811h192 l322 -471q32 -46 64 -93t47 -70t16 -24h4l15 23q15 23 45 68t63 91l325 476h183z" />
<glyph unicode="&#x2c6;" horiz-adv-x="1091" d="M838 1640l-78 -94l-213 180l-215 -178l-80 92l295 242z" />
<glyph unicode="&#x2dc;" horiz-adv-x="1091" d="M799 1780l32 -123q-15 -21 -53.5 -42.5t-89.5 -21.5q-55 0 -139.5 35t-134.5 35q-75 0 -125 -57l-33 123q15 24 53 46.5t92 22.5q53 0 136.5 -36t138.5 -36q30 0 57.5 11t36.5 18t29 25z" />
<glyph unicode="&#x2000;" horiz-adv-x="948" />
<glyph unicode="&#x2001;" horiz-adv-x="1896" />
<glyph unicode="&#x2002;" horiz-adv-x="948" />
<glyph unicode="&#x2003;" horiz-adv-x="1896" />
<glyph unicode="&#x2004;" horiz-adv-x="632" />
<glyph unicode="&#x2005;" horiz-adv-x="474" />
<glyph unicode="&#x2006;" horiz-adv-x="316" />
<glyph unicode="&#x2007;" horiz-adv-x="316" />
<glyph unicode="&#x2008;" horiz-adv-x="237" />
<glyph unicode="&#x2009;" horiz-adv-x="379" />
<glyph unicode="&#x200a;" horiz-adv-x="105" />
<glyph unicode="&#x2010;" horiz-adv-x="1189" d="M983 520h-778v142h778v-142z" />
<glyph unicode="&#x2011;" horiz-adv-x="1189" d="M983 520h-778v142h778v-142z" />
<glyph unicode="&#x2012;" horiz-adv-x="1189" d="M983 520h-778v142h778v-142z" />
<glyph unicode="&#x2013;" d="M1161 520h-956v142h956v-142z" />
<glyph unicode="&#x2014;" horiz-adv-x="2050" d="M1843 520h-1638v142h1638v-142z" />
<glyph unicode="&#x2018;" horiz-adv-x="458" d="M238 1243q41 6 67.5 -17.5t26.5 -66.5q0 -41 -29.5 -68.5t-77.5 -27.5q-55 0 -88 35.5t-33 97.5q0 76 51 153.5t136 106.5l67 -78q-45 -14 -79.5 -55.5t-40.5 -79.5z" />
<glyph unicode="&#x2019;" horiz-adv-x="458" d="M221 1278q-42 -6 -68 17.5t-26 66.5q0 41 29 68.5t77 27.5q55 0 87 -35.5t32 -97.5q0 -75 -50 -153t-134 -107l-68 78q43 14 78 55.5t43 79.5z" />
<glyph unicode="&#x201a;" horiz-adv-x="458" d="M221 -4q-42 -6 -68 17t-26 65t28.5 69t77.5 27q55 0 87 -34.5t32 -96.5q0 -76 -50 -154t-134 -108l-68 80q44 14 78.5 55t42.5 80z" />
<glyph unicode="&#x201c;" horiz-adv-x="833" d="M608 1243q42 6 68 -17.5t26 -66.5q0 -41 -29 -68.5t-77 -27.5q-55 0 -88 35.5t-33 97.5q0 76 51 153.5t136 106.5l67 -78q-43 -14 -78 -55.5t-43 -79.5zM233 1243q41 6 67 -17.5t26 -66.5q0 -41 -28.5 -68.5t-76.5 -27.5q-55 0 -88 35.5t-33 97.5q0 76 51 153.5 t136 106.5l65 -78q-43 -14 -78 -55.5t-41 -79.5z" />
<glyph unicode="&#x201d;" horiz-adv-x="833" d="M221 1278q-42 -6 -68 17.5t-26 66.5q0 41 29 68.5t77 27.5q55 0 87 -35.5t32 -97.5q0 -75 -50 -153t-134 -107l-68 78q43 14 78 55.5t43 79.5zM596 1278q-41 -6 -66.5 17.5t-25.5 66.5q0 41 28 68.5t76 27.5q55 0 88 -35.5t33 -97.5q0 -76 -50.5 -153.5t-135.5 -106.5 l-68 78q45 14 80 55.5t41 79.5z" />
<glyph unicode="&#x201e;" horiz-adv-x="806" d="M221 -4q-42 -6 -68 17t-26 65t28.5 69t77.5 27q55 0 87 -34.5t32 -96.5q0 -76 -50 -154t-134 -108l-68 80q44 14 78.5 55t42.5 80zM569 -4q-42 -6 -68 17t-26 65t29 69t78 27q55 0 87.5 -34.5t32.5 -96.5q0 -49 -20.5 -100t-64 -96.5t-101.5 -65.5l-67 80q44 14 78 55 t42 80z" />
<glyph unicode="&#x2022;" horiz-adv-x="651" d="M326 420q-72 0 -120 46t-48 118q0 70 48 115.5t120 45.5t120 -45.5t48 -115.5q0 -72 -48 -118t-120 -46z" />
<glyph unicode="&#x2026;" horiz-adv-x="1421" d="M209 -23q-43 0 -67.5 24.5t-24.5 61.5t24.5 60.5t67.5 23.5t66.5 -23.5t23.5 -60.5q0 -38 -23.5 -62t-66.5 -24zM700 -23q-43 0 -67.5 24.5t-24.5 61.5t24.5 60.5t67.5 23.5t67 -23.5t24 -60.5q0 -38 -24 -62t-67 -24zM1212 -23q-43 0 -67.5 24.5t-24.5 61.5t24.5 60.5 t67.5 23.5t67 -23.5t24 -60.5q0 -38 -24 -62t-67 -24z" />
<glyph unicode="&#x202f;" horiz-adv-x="379" />
<glyph unicode="&#x2039;" horiz-adv-x="823" d="M604 1051l96 -97l-393 -381v-6l393 -381l-96 -96l-481 481z" />
<glyph unicode="&#x203a;" horiz-adv-x="823" d="M219 90l-96 96l393 381v6l-393 381l96 97l481 -480z" />
<glyph unicode="&#x205f;" horiz-adv-x="474" />
<glyph unicode="&#x20ac;" horiz-adv-x="1232" d="M987 317l156 -43q-47 -132 -162.5 -215.5t-298.5 -83.5q-206 0 -335.5 106.5t-168.5 313.5h-100v125h86l-2 64v41h-82v123h94q35 206 160.5 313.5t335.5 107.5q180 0 306 -80.5t161 -238.5l-156 -43q-10 40 -30.5 75t-55 69t-92 53.5t-131.5 19.5q-268 0 -324 -276h354 v-123h-368l-2 -39q0 -12 1 -34t1 -32h368v-125h-350q62 -270 336 -270q224 0 299 192z" />
<glyph unicode="&#x2122;" horiz-adv-x="1605" d="M1448 768h-111v270v254h-2q-1 -1 -10.5 -21t-27 -56t-33.5 -66l-119 -229h-70l-119 229q-16 30 -35.5 67t-30 57t-11.5 21h-2l2 -256v-270h-109v666h139l146 -283q14 -25 28 -52l21 -40.5t8 -14.5h2q3 3 53 105l142 285h139v-666zM639 1434v-107h-225v-559h-113v559h-225 v107h563z" />
<glyph unicode="&#x25fc;" horiz-adv-x="1145" d="M0 1145h1145v-1145h-1145v1145z" />
</font>
</defs>
</svg>
